<?xml version="1.0" standalone="no"?>
<!DOCTYPE svg PUBLIC "-//W3C//DTD SVG 20010904//EN"
 "http://www.w3.org/TR/2001/REC-SVG-20010904/DTD/svg10.dtd">
<svg version="1.0" xmlns="http://www.w3.org/2000/svg"
 width="8000.000000pt" height="4000.000000pt" viewBox="0 0 8000.000000 4000.000000"
 preserveAspectRatio="xMidYMid meet">

<g transform="translate(0.000000,4000.000000) scale(0.100000,-0.100000)"
fill="#000000" stroke="none">
<path d="M24580 38653 c-188 -14 -625 -77 -815 -118 -347 -74 -723 -195 -1202
-387 -148 -59 -153 -62 -164 -97 -7 -20 -42 -108 -79 -196 -37 -88 -95 -245
-130 -350 -71 -217 -132 -382 -185 -505 -63 -146 -239 -629 -232 -636 2 -2 19
9 38 25 215 176 961 666 1314 864 146 82 744 380 900 449 106 47 489 200 590
235 153 53 459 132 610 157 88 15 185 31 216 36 120 21 129 10 55 -73 -100
-113 -184 -212 -182 -214 1 -2 40 10 87 26 100 34 169 67 349 171 99 58 171
90 270 124 127 42 140 45 210 39 57 -4 87 -13 127 -35 47 -26 73 -30 73 -10 0
9 -164 124 -285 199 -147 92 -443 203 -635 238 -199 36 -428 57 -650 60 -124
1 -250 1 -280 -2z"/>
<path d="M21939 34283 c-630 -525 -730 -616 -1199 -1078 l-265 -262 -102 -259
c-179 -452 -234 -607 -474 -1329 -404 -1215 -491 -1523 -799 -2820 -28 -121
-62 -260 -75 -310 -39 -149 -159 -777 -153 -797 2 -6 10 14 17 43 20 84 119
462 152 584 16 61 41 153 55 205 37 136 108 380 161 550 89 289 176 537 331
945 16 44 58 145 92 225 34 80 118 278 187 440 69 162 142 333 163 380 21 47
68 155 105 240 150 345 338 736 492 1025 110 205 169 307 348 600 159 259 241
394 280 460 139 231 306 495 442 698 122 181 329 466 432 595 24 28 41 52 39
52 -2 0 -105 -84 -229 -187z"/>
<path d="M49345 31793 c-169 -22 -401 -87 -577 -161 -271 -115 -639 -377 -992
-706 -115 -108 -146 -143 -350 -397 -55 -68 -116 -144 -136 -169 -80 -99 -221
-296 -358 -500 -117 -176 -166 -261 -268 -468 -69 -140 -143 -293 -164 -340
-21 -48 -61 -139 -90 -202 -74 -164 -130 -298 -216 -515 -128 -320 -141 -357
-169 -450 -15 -49 -38 -124 -50 -165 -36 -116 -124 -452 -165 -630 -10 -47
-33 -146 -50 -220 -54 -235 -85 -389 -170 -849 -85 -462 -100 -581 -130 -1036
-49 -761 -31 -2182 36 -2820 65 -624 144 -1138 275 -1810 23 -115 47 -242 54
-281 7 -38 22 -113 33 -165 12 -51 44 -202 73 -334 28 -132 57 -262 64 -290
l12 -50 7 110 c43 677 111 1356 171 1735 38 235 136 715 198 965 21 84 22 105
17 330 -12 500 36 1215 136 2060 60 512 157 978 353 1705 133 493 356 1100
543 1474 210 421 393 688 600 880 118 108 136 122 151 107 7 -7 7 -30 -1 -78
-19 -111 -47 -548 -62 -968 -5 -137 -14 -322 -19 -410 -20 -323 -24 -1366 -7
-1865 36 -1058 37 -1075 86 -1592 105 -1122 128 -1338 190 -1746 37 -248 118
-732 170 -1012 10 -58 35 -199 55 -315 50 -292 130 -646 246 -1085 33 -125
172 -608 194 -674 7 -23 34 -108 60 -191 26 -82 107 -334 180 -560 74 -225
147 -450 163 -500 53 -164 283 -724 447 -1090 145 -322 448 -929 685 -1370
221 -412 538 -991 578 -1056 197 -321 623 -973 704 -1079 12 -15 15 -26 8 -28
-11 -4 -259 21 -380 38 -36 5 -103 14 -150 21 -441 60 -1396 248 -1873 369
-623 157 -1016 287 -1711 566 -656 264 -1188 527 -1696 839 -690 424 -1209
794 -1676 1196 -236 203 -691 615 -844 764 -85 83 -175 166 -200 185 -25 18
-67 54 -95 80 -52 48 -91 70 -112 63 -20 -7 -15 -72 8 -123 11 -24 31 -92 45
-149 17 -75 46 -149 98 -261 41 -85 99 -225 131 -310 75 -204 191 -440 307
-625 94 -150 217 -364 277 -482 17 -35 42 -70 56 -79 82 -54 1477 -649 2191
-934 540 -216 933 -359 1764 -641 620 -211 877 -289 1535 -469 651 -178 1024
-274 1310 -335 94 -20 382 -83 640 -140 435 -97 608 -131 1090 -215 99 -17
261 -46 360 -65 206 -39 464 -79 610 -95 55 -6 181 -23 280 -36 99 -14 194
-25 211 -26 18 -1 76 17 130 40 55 23 351 144 659 271 1199 491 1600 662 2151
921 305 143 895 432 891 436 -1 2 -57 -16 -122 -40 -66 -24 -122 -42 -124 -40
-2 1 -4 159 -6 351 -3 321 -5 353 -24 413 -11 36 -21 76 -21 90 0 41 -20 100
-41 121 -11 11 -33 19 -53 19 -37 0 -51 -11 -128 -108 -112 -139 -147 -188
-186 -261 -23 -43 -92 -157 -154 -253 -61 -95 -156 -245 -211 -333 -153 -244
-236 -365 -251 -365 -12 0 -192 -43 -751 -180 -201 -49 -396 -86 -800 -150
-411 -65 -885 -100 -1489 -109 l-429 -6 -27 40 c-14 22 -86 141 -160 265 -73
124 -150 254 -172 290 -22 36 -71 119 -110 185 -38 66 -94 161 -123 210 -47
80 -175 306 -315 555 -134 238 -420 798 -590 1155 -79 166 -240 521 -240 531
0 3 -15 42 -34 87 -19 45 -96 237 -171 427 -75 190 -149 377 -165 415 -16 39
-61 153 -100 255 -69 179 -86 225 -185 490 -82 219 -220 619 -279 805 -32 99
-71 221 -86 270 -75 233 -197 671 -239 860 -18 77 -43 187 -56 245 -44 191
-157 703 -176 795 -10 50 -30 144 -44 210 -14 66 -30 147 -36 180 -6 33 -16
89 -24 125 -41 189 -124 703 -160 990 -9 69 -20 159 -26 200 -16 124 -44 586
-69 1119 -21 455 -10 1273 20 1531 33 285 42 363 60 525 63 557 111 848 250
1515 17 80 35 170 41 200 31 169 128 596 174 765 46 169 125 490 170 690 30
134 77 321 131 525 35 136 71 304 119 570 15 80 33 179 41 220 45 226 40 635
-10 831 -88 346 -345 620 -686 733 -148 49 -317 67 -455 49z"/>
<path d="M15208 28875 c-9 -33 -46 -163 -83 -290 -37 -126 -78 -270 -91 -319
-13 -48 -26 -92 -29 -96 -11 -18 -105 -404 -125 -510 -11 -63 -32 -178 -46
-255 -38 -210 -83 -501 -109 -705 -8 -63 -17 -128 -20 -145 -3 -16 -10 -70
-15 -120 -5 -49 -16 -153 -24 -230 -17 -154 -42 -454 -51 -610 -3 -55 -10
-163 -16 -240 -22 -313 -59 -1220 -59 -1442 0 -713 84 -1530 260 -2543 17 -96
58 -335 91 -530 94 -558 106 -625 145 -790 20 -85 42 -182 49 -215 13 -55 104
-401 155 -585 67 -242 387 -1194 390 -1158 0 7 -32 129 -70 268 -112 406 -116
422 -212 800 -145 572 -223 922 -308 1390 -11 63 -25 138 -30 165 -5 28 -21
119 -35 203 -24 143 -33 215 -55 432 -5 47 -18 166 -29 265 -12 99 -26 225
-31 280 -6 55 -15 138 -20 185 -44 389 -94 937 -110 1200 -6 85 -15 238 -22
340 -17 262 -17 1608 0 1750 7 58 24 213 37 345 27 256 34 320 65 595 12 96
25 216 30 265 6 50 14 122 20 160 5 39 16 124 25 190 23 175 41 305 76 530 17
110 35 229 40 265 5 36 16 99 24 140 8 41 26 140 40 220 38 211 112 588 141
718 27 121 28 177 2 77z"/>
<path d="M67995 27720 c-11 -18 6 -30 44 -30 21 0 61 -12 92 -27 49 -25 58
-36 100 -112 45 -82 46 -87 53 -196 3 -62 11 -136 16 -166 7 -33 8 -120 4
-224 -3 -97 -1 -224 5 -295 8 -90 8 -197 -1 -385 l-11 -260 -74 -69 c-97 -90
-145 -154 -233 -311 -96 -171 -159 -304 -213 -450 -25 -66 -73 -187 -107 -270
-34 -82 -95 -242 -135 -355 -93 -262 -88 -247 -187 -500 -126 -318 -120 -276
-50 -362 115 -143 322 -423 497 -673 l119 -169 93 189 c50 105 137 298 192
430 55 132 141 337 191 455 125 294 241 600 311 815 64 195 65 203 109 660 19
206 30 372 50 785 5 113 16 311 24 440 8 129 16 336 18 459 l3 224 -25 18
c-144 102 -286 181 -392 218 -47 16 -110 42 -139 57 -29 14 -76 34 -103 44
-28 10 -78 29 -111 44 -61 26 -129 34 -140 16z"/>
<path d="M31123 23198 c-22 -29 -60 -82 -85 -118 -26 -36 -71 -84 -101 -107
-30 -23 -80 -65 -110 -93 -30 -27 -108 -80 -173 -116 -66 -37 -151 -89 -191
-115 -40 -27 -139 -82 -220 -123 -81 -41 -200 -107 -263 -147 -63 -39 -180
-106 -260 -149 -234 -125 -470 -278 -470 -304 0 -35 318 -809 503 -1226 101
-227 475 -975 612 -1225 160 -292 335 -578 609 -995 283 -430 371 -559 377
-552 4 4 19 77 34 162 83 473 210 1062 328 1522 l54 208 -30 57 c-16 31 -61
115 -102 187 -142 255 -182 333 -244 471 -94 210 -135 294 -231 475 -49 91
-107 212 -130 270 -23 58 -73 166 -111 240 -39 74 -81 161 -94 193 l-24 59 23
-21 c28 -26 46 -27 46 -1 0 18 -90 100 -109 100 -11 0 -32 50 -26 60 2 4 18
89 35 189 17 99 46 234 64 298 19 65 44 168 56 228 13 64 35 135 52 168 16 32
42 91 57 132 17 44 59 115 106 180 43 60 78 115 79 123 2 33 -25 20 -61 -30z"/>
<path d="M71286 22320 c-3 -47 -15 -204 -26 -350 -11 -146 -24 -305 -30 -355
-5 -49 -12 -121 -15 -160 -8 -89 -52 -478 -65 -570 -6 -38 -21 -151 -35 -250
-14 -99 -29 -207 -35 -240 -5 -33 -17 -105 -25 -160 -9 -55 -22 -138 -30 -185
-8 -47 -22 -130 -31 -185 -39 -236 -115 -587 -169 -780 -8 -27 -26 -93 -39
-145 -45 -169 -114 -423 -141 -515 -29 -99 -64 -216 -100 -340 -25 -85 -156
-497 -248 -781 l-55 -170 24 -125 c13 -68 31 -158 39 -199 17 -89 101 -585
115 -679 5 -36 21 -140 34 -231 23 -154 65 -467 86 -640 5 -41 12 -101 16
-134 4 -33 10 -52 14 -45 4 8 42 138 84 289 43 151 90 320 106 375 39 137 86
307 111 401 48 182 151 595 169 674 10 47 33 146 50 220 32 137 57 258 109
520 62 309 81 418 91 510 6 52 14 129 20 170 38 306 69 607 110 1095 21 248
42 698 55 1210 6 231 -3 475 -25 665 -5 47 -19 171 -30 275 -25 224 -60 482
-114 840 l-13 80 -7 -85z"/>
<path d="M66273 21548 c-28 -51 -71 -136 -98 -188 -136 -270 -317 -597 -457
-825 -168 -274 -293 -467 -658 -1015 -216 -324 -372 -539 -585 -805 -189 -236
-216 -269 -254 -311 -20 -22 -72 -82 -116 -134 -114 -133 -231 -267 -284 -325
-25 -28 -118 -131 -206 -230 -382 -427 -738 -779 -1100 -1085 -48 -41 -109
-93 -135 -115 -25 -22 -91 -76 -145 -120 -54 -44 -126 -102 -160 -130 -33 -27
-79 -64 -100 -81 -253 -197 -465 -361 -532 -412 -129 -98 -108 -92 46 12 77
53 205 139 284 193 1287 872 1770 1253 2511 1977 835 817 1362 1398 1756 1940
63 87 149 204 190 261 169 232 209 286 295 405 50 69 105 146 123 172 l32 47
-44 118 c-72 192 -218 542 -284 681 l-30 63 -49 -93z"/>
<path d="M28477 20550 c-4 -36 -11 -175 -17 -310 -6 -135 -17 -337 -25 -450
-34 -483 -38 -625 -31 -1125 8 -597 19 -764 82 -1200 45 -316 131 -828 160
-957 74 -334 249 -864 447 -1353 295 -730 314 -774 446 -1030 155 -300 448
-812 458 -801 2 2 -8 30 -23 62 -37 82 -190 563 -254 799 -118 432 -154 660
-170 1045 -15 395 -18 520 -12 563 5 37 5 37 75 -90 38 -71 94 -173 125 -228
70 -126 304 -529 392 -675 312 -516 373 -606 640 -954 58 -75 124 -162 148
-193 l42 -57 0 50 c0 86 19 617 35 969 19 412 37 698 67 1030 l22 250 -120
150 c-269 335 -599 781 -800 1080 -244 362 -699 1155 -947 1651 -196 392 -527
1206 -682 1679 l-52 160 -6 -65z"/>
<path d="M32606 18289 c-5 -15 -10 -67 -56 -584 -47 -521 -78 -882 -85 -990
-3 -55 -8 -118 -11 -141 -5 -39 -2 -43 117 -185 252 -297 545 -616 845 -919
586 -592 1471 -1444 1864 -1795 74 -66 182 -163 240 -215 58 -51 355 -308 660
-569 1104 -948 1211 -1038 1694 -1429 l259 -209 446 -226 c741 -374 1017 -496
2271 -1003 519 -209 591 -237 770 -301 642 -229 934 -319 2140 -662 1118 -317
1511 -405 2980 -665 899 -159 1299 -217 1925 -281 488 -49 1645 -123 2270
-145 346 -12 1290 -13 1565 -1 l195 8 705 351 c609 303 1003 504 1275 651 39
21 131 71 205 111 209 113 441 239 730 400 934 520 1438 815 2095 1228 243
153 276 174 530 340 88 58 219 143 290 190 424 277 1036 689 1060 714 6 5
-122 -56 -284 -137 -477 -238 -987 -459 -1656 -717 -230 -88 -836 -311 -1000
-367 -33 -11 -145 -50 -250 -87 -104 -36 -215 -74 -245 -84 -30 -10 -134 -46
-230 -80 -96 -34 -224 -79 -285 -100 -60 -21 -168 -59 -240 -84 -166 -59 -611
-196 -915 -281 -129 -36 -266 -74 -305 -85 -245 -69 -719 -182 -1450 -345
-280 -63 -600 -135 -710 -160 -833 -191 -1344 -273 -2555 -410 -267 -30 -579
-66 -695 -80 -651 -77 -1051 -92 -2060 -77 -423 7 -810 16 -860 22 -151 16
-301 39 -510 80 -110 21 -261 48 -335 60 -190 29 -308 63 -419 120 -53 27
-123 58 -156 70 -67 22 -125 75 -125 112 0 48 63 93 170 123 25 7 83 30 129
50 46 21 143 52 215 71 72 18 127 33 123 33 -23 2 -433 97 -589 136 -195 50
-323 87 -773 225 -93 29 -186 57 -205 62 -100 27 -697 221 -910 295 -514 179
-840 307 -1305 515 -255 115 -389 180 -695 340 -184 96 -382 198 -440 228 -58
29 -144 75 -191 102 -48 26 -90 48 -93 48 -3 0 -45 22 -94 49 -48 27 -179 99
-292 161 -194 107 -267 149 -483 273 -323 188 -871 543 -1109 718 -137 101
-731 555 -902 689 -60 47 -143 112 -185 144 -411 320 -940 784 -1261 1105
-181 181 -743 780 -891 949 -150 172 -178 204 -249 288 -75 88 -107 126 -255
308 -129 159 -175 220 -312 411 -115 160 -182 254 -395 559 -68 98 -283 418
-360 536 -30 47 -117 189 -193 315 -75 127 -139 232 -141 234 -2 2 -6 -2 -8
-10z"/>
<path d="M67123 17908 c-52 -70 -127 -193 -176 -285 -168 -317 -490 -870 -700
-1203 -328 -521 -1054 -1536 -1334 -1867 -470 -555 -674 -784 -1147 -1282
-417 -439 -1033 -979 -1994 -1744 -374 -298 -428 -339 -542 -420 -36 -25 -94
-66 -130 -91 -36 -25 -246 -167 -468 -316 -222 -148 -400 -270 -397 -270 3 0
32 13 63 29 31 16 237 113 457 217 602 283 1163 565 1460 735 222 126 422 243
445 259 14 10 63 40 110 67 223 130 711 455 845 563 50 39 128 103 175 140 94
76 359 288 456 365 34 28 117 95 184 150 67 55 140 115 163 133 67 54 331 280
502 430 220 195 241 218 302 331 54 101 253 498 253 505 0 2 62 131 139 287
290 595 475 990 641 1369 246 560 468 1117 640 1598 27 75 72 200 99 276 28
76 50 141 47 143 -2 2 -44 -52 -93 -119z"/>
<path d="M25537 16030 c-13 -32 -27 -556 -27 -985 0 -420 2 -463 25 -655 14
-113 28 -212 30 -220 3 -8 11 -64 20 -125 50 -358 179 -903 350 -1470 18 -60
51 -173 74 -250 82 -276 165 -483 353 -890 179 -387 363 -734 596 -1125 24
-41 72 -122 107 -180 34 -58 92 -154 130 -215 105 -171 170 -277 230 -376 108
-176 280 -423 494 -708 64 -85 132 -175 151 -200 88 -117 321 -401 504 -616
154 -181 461 -523 736 -820 113 -122 270 -293 350 -379 79 -87 159 -170 176
-186 72 -63 1157 -395 2057 -630 109 -29 201 -50 204 -47 2 3 -15 72 -39 153
-37 126 -47 150 -73 170 -16 13 -122 92 -234 176 -112 84 -216 162 -230 172
-53 40 -418 333 -486 389 -419 353 -368 306 -1190 1098 -555 534 -847 841
-1274 1339 -285 331 -510 627 -690 905 -698 1079 -1010 1618 -1342 2317 -189
400 -239 527 -414 1053 -112 338 -175 539 -274 880 -23 81 -121 468 -144 570
-66 290 -132 630 -151 770 -7 55 -16 93 -19 85z"/>
<path d="M19735 14605 c2 -11 11 -49 18 -85 96 -445 353 -1455 504 -1975 79
-274 144 -488 153 -506 13 -22 134 -57 285 -80 72 -11 166 -31 210 -45 87 -28
168 -33 298 -19 49 5 87 15 100 25 28 23 28 80 0 118 -11 15 -24 42 -27 59
-10 42 -59 122 -133 215 -33 42 -96 127 -139 190 -43 62 -135 190 -204 283
-262 352 -354 493 -556 846 -150 265 -241 435 -367 694 -135 277 -148 302
-142 280z"/>
<path d="M32370 13850 c0 -713 16 -1106 70 -1754 l18 -218 58 -60 c84 -86 518
-493 664 -623 68 -60 151 -135 185 -165 212 -189 546 -467 840 -700 235 -187
303 -240 373 -294 43 -32 147 -113 234 -180 86 -67 198 -152 249 -191 50 -38
133 -102 183 -141 125 -98 238 -177 541 -378 451 -300 689 -447 1180 -731 353
-204 889 -490 1635 -873 509 -261 516 -265 992 -465 87 -37 222 -92 300 -123
79 -30 181 -71 228 -89 178 -71 687 -249 930 -326 85 -27 196 -63 245 -79 114
-36 492 -148 725 -214 339 -95 527 -148 650 -181 74 -21 162 -45 195 -56 75
-23 401 -104 475 -117 86 -17 316 -59 410 -76 47 -9 114 -20 150 -25 36 -5
124 -19 195 -30 214 -33 617 -80 850 -100 308 -26 375 -30 970 -55 61 -3 106
-3 100 -1 -5 2 -155 38 -333 80 -764 179 -1446 366 -2017 553 -203 67 -1172
419 -1530 557 -66 25 -154 59 -195 75 -154 59 -501 201 -685 280 -104 46 -224
97 -265 115 -255 110 -785 364 -970 465 -1079 591 -1710 967 -2470 1473 -267
178 -329 224 -740 552 -547 436 -900 735 -1435 1214 -498 446 -1009 987 -1781
1886 -304 354 -617 758 -978 1265 -92 129 -185 253 -207 275 l-39 40 0 -585z"/>
<path d="M68218 12523 c-58 -114 -367 -622 -556 -913 -193 -298 -493 -740
-635 -935 -32 -44 -72 -100 -89 -125 -41 -58 -186 -254 -404 -545 -164 -220
-260 -347 -473 -625 -52 -69 -121 -159 -152 -200 -31 -41 -97 -127 -145 -190
-87 -115 -181 -227 -363 -434 -601 -685 -1197 -1287 -2046 -2071 -296 -273
-521 -482 -620 -575 -667 -627 -1270 -1127 -2170 -1796 -38 -28 -139 -102
-224 -163 -85 -61 -149 -111 -143 -111 6 0 97 30 204 66 363 124 678 260 1053
453 l194 100 568 -190 c769 -257 1149 -371 1928 -578 1130 -300 1452 -374
2565 -585 664 -126 1046 -189 1536 -251 l51 -6 7 158 c6 136 35 958 36 1004 0
14 -33 17 -277 23 -557 13 -1252 63 -1703 121 -287 38 -896 146 -1175 210 -60
14 -162 37 -225 51 -823 182 -1263 299 -1760 469 -144 49 -192 66 -432 155
-49 17 -88 35 -88 38 0 4 19 19 43 33 426 261 747 476 1052 704 318 238 405
307 565 450 31 28 97 84 146 126 49 42 138 119 198 170 60 52 125 107 145 124
20 16 88 74 151 128 63 54 155 133 205 175 49 43 115 100 145 128 30 27 73 66
96 85 399 336 1085 1029 1399 1413 65 79 329 397 420 505 111 132 281 340 420
511 219 270 430 548 623 818 l52 72 0 133 c0 316 -70 1921 -85 1935 -1 2 -18
-28 -37 -65z"/>
<path d="M46390 12380 c27 -21 520 -369 885 -624 498 -349 771 -513 1255 -755
285 -142 460 -220 660 -296 52 -20 146 -56 208 -81 62 -24 118 -44 126 -44 33
0 958 273 1321 390 50 16 191 61 313 100 123 39 222 73 220 75 -1 2 -79 8
-173 15 -315 21 -492 40 -717 75 -259 41 -699 121 -908 165 -80 17 -179 38
-220 46 -519 106 -858 203 -1685 479 -588 196 -878 299 -1125 399 -102 41
-174 66 -160 56z"/>
<path d="M56550 8375 c-155 -79 -232 -123 -210 -120 61 9 660 85 666 85 4 0
-11 15 -33 33 -22 17 -65 53 -95 80 -30 26 -61 47 -69 46 -8 0 -124 -56 -259
-124z"/>
<path d="M57930 7409 c-113 -32 -279 -77 -370 -100 -91 -23 -168 -45 -172 -48
-9 -8 472 -380 867 -672 313 -231 839 -599 865 -606 9 -2 111 88 269 239 140
134 256 248 258 253 1 6 -16 21 -40 34 -41 23 -158 96 -327 203 -96 60 -347
229 -520 349 -63 44 -146 101 -185 128 -38 26 -146 100 -238 164 -93 64 -176
116 -185 116 -9 -1 -109 -28 -222 -60z"/>
<path d="M36231 6876 c4 -4 22 -19 41 -34 20 -15 89 -70 154 -123 321 -258
775 -606 1139 -874 66 -49 152 -112 190 -140 320 -236 703 -507 1178 -834
l178 -122 232 -15 c128 -8 381 -18 562 -24 356 -10 1348 -11 1534 -1 l115 6
-510 159 c-722 226 -1249 401 -1554 517 -288 109 -437 167 -515 199 -539 225
-621 261 -1325 588 -533 247 -914 434 -1195 584 -168 90 -232 123 -224 114z"/>
<path d="M54765 6715 c-5 -3 -167 -27 -360 -55 -318 -45 -515 -68 -1135 -131
-113 -11 -215 -24 -228 -27 -21 -7 -15 -15 75 -102 54 -52 152 -142 217 -200
65 -58 149 -131 185 -164 144 -128 136 -124 257 -141 394 -54 1115 -130 1609
-170 315 -25 816 -57 821 -52 3 2 -67 56 -516 397 -157 119 -664 506 -777 593
-71 55 -108 67 -148 52z"/>
<path d="M31616 5161 c12 -12 381 -271 509 -358 33 -23 145 -99 248 -170 104
-70 197 -134 208 -142 19 -13 19 -12 -2 45 -12 32 -43 117 -69 188 l-47 129
-124 45 c-193 68 -545 200 -637 238 -85 35 -103 40 -86 25z"/>
<path d="M58075 5053 c-117 -74 -366 -218 -453 -262 l-43 -22 -170 106 -169
107 -333 -56 c-522 -88 -738 -112 -1342 -146 -198 -12 -364 -22 -369 -24 -10
-2 318 -221 526 -351 61 -38 128 -81 147 -94 20 -13 81 -52 136 -86 185 -114
400 -248 431 -268 17 -11 37 -34 43 -51 18 -47 118 -151 133 -139 107 83 689
569 843 702 181 158 536 471 595 526 30 28 78 69 105 93 28 23 48 42 45 42 -3
0 -59 -35 -125 -77z"/>
<path d="M72055 4554 c-27 -9 -132 -31 -232 -50 -100 -18 -305 -65 -456 -104
-335 -85 -551 -133 -767 -169 l-165 -28 -23 -174 c-36 -277 -120 -867 -153
-1073 -16 -104 -27 -191 -24 -194 8 -8 370 174 496 250 209 126 317 209 714
543 44 37 141 114 215 170 173 132 296 260 397 412 44 65 103 141 132 168 64
60 99 117 107 176 5 37 3 47 -15 63 -28 26 -155 31 -226 10z"/>
<path d="M34370 4189 c0 -11 121 -310 292 -724 62 -149 55 -143 248 -223 229
-94 579 -235 650 -262 41 -16 129 -49 195 -75 66 -26 194 -75 285 -110 91 -34
251 -95 355 -135 425 -163 499 -190 671 -245 303 -96 294 -94 641 -194 119
-35 646 -167 818 -205 291 -65 643 -135 1080 -215 61 -11 279 -52 485 -91 206
-39 409 -77 452 -85 42 -8 94 -18 115 -24 21 -5 106 -19 188 -30 83 -12 182
-26 221 -31 38 -6 108 -15 155 -20 46 -5 129 -14 184 -20 200 -22 523 -49 650
-55 72 -3 150 -8 175 -11 25 -3 42 -3 39 0 -3 4 -219 42 -480 86 -261 43 -550
95 -644 114 -463 96 -921 229 -1375 401 -113 42 -344 128 -515 190 -791 289
-1174 441 -1623 647 -274 125 -719 347 -947 473 -115 64 -343 188 -505 275
l-295 159 -200 55 c-936 256 -1236 338 -1272 351 -25 8 -43 10 -43 4z"/>
<path d="M50180 4060 c-145 -5 -230 -15 -390 -43 -271 -47 -354 -59 -815 -112
-833 -95 -918 -100 -1685 -100 -460 0 -732 4 -915 15 -143 8 -307 15 -365 15
-104 0 -107 -1 -275 -63 -330 -121 -1223 -358 -1720 -456 -344 -68 -1569 -208
-1957 -223 -82 -3 -148 -9 -148 -12 1 -16 623 -316 1240 -598 535 -245 698
-316 985 -430 220 -87 421 -179 615 -281 41 -22 106 -54 143 -72 100 -47 167
-121 154 -172 -4 -13 -24 -34 -46 -48 -22 -13 -39 -26 -37 -27 7 -8 437 48
646 83 203 34 388 73 810 169 201 46 434 98 519 115 561 114 970 262 1581 571
140 70 351 173 468 228 359 168 546 284 810 505 152 127 191 158 354 280 102
76 196 178 249 268 24 40 60 92 82 116 74 83 92 161 51 220 -38 54 -91 62
-354 52z"/>
<path d="M62685 3753 c113 -73 859 -485 1275 -705 597 -315 2029 -1033 2435
-1221 l260 -120 115 16 c63 9 171 28 240 41 419 82 670 130 846 160 210 36
383 72 393 81 6 7 23 296 17 302 -2 2 -116 22 -252 44 -543 86 -833 142 -1479
289 -762 173 -1422 344 -1960 506 -570 172 -1359 428 -1780 577 -55 20 -109
39 -120 42 -11 4 -6 -2 10 -12z"/>
<path d="M59645 3452 c-61 -42 -126 -89 -145 -103 -19 -14 -165 -120 -325
-234 -159 -115 -323 -234 -364 -263 l-74 -55 79 -29 c351 -130 1008 -341 1424
-456 40 -11 371 -108 500 -145 47 -14 184 -55 305 -92 686 -208 1522 -352
2348 -406 93 -6 170 -9 173 -7 2 2 -38 21 -89 43 -779 327 -1318 575 -2047
939 -267 134 -561 286 -655 338 -93 52 -300 166 -460 253 -159 86 -347 188
-416 226 -69 38 -130 69 -135 69 -5 0 -59 -35 -119 -78z"/>
</g>
</svg>
