<?xml version="1.0" standalone="no"?>
<!DOCTYPE svg PUBLIC "-//W3C//DTD SVG 20010904//EN"
 "http://www.w3.org/TR/2001/REC-SVG-20010904/DTD/svg10.dtd">
<svg version="1.0" xmlns="http://www.w3.org/2000/svg"
 width="8000.000000pt" height="4000.000000pt" viewBox="0 0 8000.000000 4000.000000"
 preserveAspectRatio="xMidYMid meet">

<g transform="translate(0.000000,4000.000000) scale(0.100000,-0.100000)"
fill="#000000" stroke="none">
<path d="M50644 38242 c-63 -61 -242 -268 -340 -392 -184 -233 -385 -554 -536
-854 -22 -45 -54 -98 -70 -119 -28 -35 -59 -85 -269 -430 -42 -70 -104 -190
-137 -265 -33 -75 -101 -231 -152 -346 -114 -260 -167 -403 -231 -620 -28 -94
-75 -245 -104 -336 -97 -301 -141 -468 -204 -770 -16 -80 -51 -235 -76 -345
-59 -258 -110 -532 -124 -670 -23 -223 -60 -635 -72 -795 -20 -280 2 -752 51
-1110 17 -126 33 -205 95 -470 89 -382 228 -729 388 -970 78 -116 232 -263
372 -355 304 -200 499 -265 790 -265 215 0 386 40 572 134 172 87 291 185 437
361 149 179 201 261 259 406 160 399 110 841 -135 1195 -59 86 -164 201 -231
254 l-44 35 -12 125 c-7 69 -16 195 -21 280 -5 85 -18 277 -29 425 -11 149
-25 387 -31 529 -6 143 -19 334 -30 425 -11 92 -31 258 -45 371 -13 113 -34
310 -45 439 -12 129 -36 353 -55 498 -19 145 -44 369 -55 496 -11 128 -32 318
-45 422 -14 105 -34 293 -45 419 -11 126 -27 270 -35 321 l-15 93 35 169 c19
92 46 236 60 318 14 83 37 209 50 280 26 138 74 462 100 660 8 66 24 189 35
273 26 195 26 222 1 222 -10 0 -36 -17 -57 -38z m-29 -298 c-3 -63 -21 -148
-66 -322 -133 -510 -205 -853 -260 -1234 l-33 -227 22 -98 c30 -133 47 -265
72 -543 35 -400 40 -485 46 -825 4 -276 10 -370 34 -575 66 -552 91 -826 120
-1270 21 -343 40 -816 40 -1030 l0 -135 56 -75 c31 -41 96 -116 143 -166 210
-223 261 -290 325 -425 109 -230 128 -382 75 -592 -32 -129 -55 -178 -171
-369 -150 -249 -156 -256 -256 -341 -135 -115 -324 -223 -445 -253 -34 -9 -78
-29 -97 -44 -145 -114 -353 -121 -565 -20 -200 95 -458 324 -642 568 -310 412
-515 998 -584 1672 -28 267 -11 703 32 840 6 19 17 157 24 305 8 149 20 329
29 400 29 248 89 495 156 645 20 46 36 112 54 225 103 641 326 1294 557 1630
38 56 61 110 114 265 225 660 556 1291 910 1735 52 66 110 140 128 165 27 38
78 92 157 166 8 8 18 14 22 14 4 0 5 -39 3 -86z"/>
</g>
</svg>
