<?xml version="1.0" standalone="no"?>
<!DOCTYPE svg PUBLIC "-//W3C//DTD SVG 20010904//EN"
 "http://www.w3.org/TR/2001/REC-SVG-20010904/DTD/svg10.dtd">
<svg version="1.0" xmlns="http://www.w3.org/2000/svg"
 width="8000.000000pt" height="4000.000000pt" viewBox="0 0 8000.000000 4000.000000"
 preserveAspectRatio="xMidYMid meet">

<g transform="translate(0.000000,4000.000000) scale(0.100000,-0.100000)"
fill="#000000" stroke="none">
<path d="M60715 37430 c-131 -9 -283 -34 -380 -60 -38 -10 -140 -37 -225 -59
-331 -85 -561 -186 -875 -381 -99 -62 -220 -137 -270 -168 -235 -146 -417
-290 -685 -542 -405 -381 -705 -695 -845 -885 -17 -22 -84 -107 -150 -189
-234 -291 -305 -382 -452 -587 -104 -143 -475 -748 -644 -1049 -168 -298 -319
-630 -434 -950 -12 -36 -32 -85 -42 -110 -81 -185 -293 -853 -293 -921 0 -6
15 6 33 28 17 22 77 93 132 158 55 65 113 135 130 154 372 447 986 1070 1353
1374 197 163 404 317 546 405 95 59 75 31 231 322 350 651 742 1190 1194 1640
370 368 672 582 1022 726 132 54 258 82 399 90 58 3 146 14 196 25 50 10 146
26 213 34 67 9 156 25 197 35 312 80 1101 113 1522 64 139 -16 472 -60 527
-70 l30 -5 -40 35 c-133 120 -429 331 -618 441 -120 70 -442 226 -517 250 -30
10 -75 27 -100 37 -62 27 -283 84 -415 107 -264 48 -534 66 -740 51z"/>
<path d="M58914 34497 c-95 -135 -266 -398 -262 -402 2 -2 30 3 63 10 60 14
152 29 256 40 l56 6 -14 72 c-8 40 -17 141 -21 224 l-7 152 -71 -102z"/>
<path d="M48180 32450 c-351 -38 -732 -136 -1200 -308 -248 -92 -761 -347
-1085 -542 -112 -67 -340 -222 -421 -287 -364 -288 -730 -623 -1035 -948 -173
-184 -400 -500 -666 -925 -39 -63 -161 -269 -246 -415 -22 -38 -61 -106 -87
-150 -87 -149 -184 -341 -160 -320 12 11 115 124 229 250 405 452 623 659
1091 1037 92 74 225 185 406 338 213 181 462 354 824 575 52 32 163 102 245
155 280 181 469 282 700 370 121 47 241 97 383 159 115 51 270 96 377 110 226
30 289 36 385 35 85 0 116 -4 162 -23 185 -72 260 -267 194 -502 -14 -52 -35
-137 -46 -189 -33 -151 -74 -260 -184 -490 -57 -118 -118 -251 -136 -295 -46
-114 -194 -408 -282 -560 -99 -172 -123 -215 -203 -375 -117 -232 -282 -537
-374 -689 -148 -247 -223 -377 -346 -601 -260 -475 -352 -632 -524 -900 -201
-310 -466 -749 -606 -1000 -44 -78 -87 -147 -277 -440 -243 -375 -396 -631
-553 -925 -51 -97 -247 -445 -301 -535 -75 -127 -231 -444 -352 -715 -72 -159
-165 -366 -207 -460 -121 -268 -136 -310 -314 -860 -125 -388 -181 -588 -168
-602 8 -7 76 134 106 218 17 46 70 167 119 269 49 102 118 257 153 345 34 88
125 284 201 435 77 151 166 334 200 405 152 325 206 431 363 714 92 165 168
301 170 301 4 0 136 -204 203 -315 116 -191 300 -542 407 -774 136 -297 299
-734 380 -1021 15 -52 28 -96 30 -97 1 -2 26 10 56 27 201 109 515 167 746
140 244 -29 454 -110 687 -264 323 -214 627 -605 837 -1074 62 -140 180 -494
225 -677 33 -133 94 -470 109 -600 4 -33 10 -65 14 -72 4 -8 51 26 136 99 684
586 1338 1092 1840 1423 320 211 589 370 880 521 l140 73 -3 198 c-4 188 7
382 28 503 12 66 50 453 46 457 -13 13 -1049 -312 -1421 -447 -649 -234 -803
-291 -1025 -380 -135 -54 -251 -100 -259 -102 -7 -2 -35 32 -64 79 -83 131
-171 236 -317 375 -147 142 -268 237 -401 316 -312 187 -698 286 -1049 268
-69 -3 -141 -9 -162 -12 l-36 -6 -12 58 c-59 301 -189 742 -316 1079 -92 246
-105 278 -150 387 -51 120 -35 109 -179 123 -33 3 -105 12 -160 20 -114 16
-511 61 -765 86 -63 6 -141 14 -172 18 l-58 6 63 110 c78 135 156 264 305 505
205 330 275 447 387 645 135 237 285 480 432 700 222 333 380 572 457 692 183
283 356 523 520 719 49 59 149 180 269 328 255 313 348 411 793 837 206 199
252 236 639 529 149 112 454 300 577 355 45 21 173 71 283 111 358 133 548
241 685 392 122 133 212 319 240 494 18 114 9 313 -20 417 -24 89 -108 263
-175 366 -53 82 -273 300 -365 362 -271 182 -678 318 -1100 368 -173 20 -529
18 -740 -5z"/>
<path d="M39185 28499 c-540 -38 -961 -97 -1330 -185 -135 -32 -454 -120 -461
-127 -1 -1 45 -13 104 -26 124 -27 257 -60 392 -96 206 -56 776 -242 842 -276
20 -10 65 -29 100 -42 35 -14 90 -38 123 -54 58 -29 65 -30 245 -36 334 -11
677 -70 1037 -178 l132 -39 73 43 c203 120 276 161 418 231 252 126 567 255
878 361 l213 73 -63 20 c-96 31 -314 90 -398 107 -41 9 -101 23 -133 31 -80
20 -470 93 -607 113 -221 32 -304 42 -470 56 -386 31 -848 41 -1095 24z"/>
<path d="M57465 27693 c-88 -133 -187 -286 -220 -339 -33 -53 -78 -124 -99
-158 -22 -33 -54 -86 -71 -116 -76 -130 -241 -402 -296 -486 l-60 -91 41 -133
c57 -183 205 -578 310 -825 95 -223 396 -863 417 -885 2 -2 8 2 13 10 7 12 14
10 38 -13 44 -42 82 -128 98 -225 8 -48 17 -91 19 -97 12 -28 -9 2926 -24
3400 l-6 200 -160 -242z"/>
<path d="M69090 27917 c0 -4 22 -96 49 -205 96 -384 169 -805 220 -1277 92
-836 99 -1114 51 -2035 -24 -464 -82 -864 -205 -1435 -114 -525 -139 -622
-246 -950 -145 -447 -439 -1167 -601 -1474 l-60 -114 26 -91 c33 -120 89 -400
121 -611 14 -93 30 -195 35 -225 5 -30 18 -134 30 -230 11 -96 25 -213 30
-260 12 -99 30 -304 30 -340 0 -21 2 -22 14 -10 41 44 530 1014 648 1285 36
83 82 188 103 235 20 47 54 130 74 185 21 55 69 181 108 280 38 99 90 234 116
300 56 148 201 583 256 765 102 344 104 353 196 775 20 88 44 198 54 245 47
207 113 578 141 790 11 85 25 187 30 225 10 67 20 174 40 445 49 648 61 1086
40 1525 l-12 240 -38 60 c-21 33 -94 155 -162 270 -116 194 -153 255 -293 482
-102 167 -131 212 -245 383 -160 239 -204 304 -263 385 -28 39 -67 93 -87 120
-51 70 -182 248 -192 260 -4 5 -8 6 -8 2z"/>
<path d="M68451 27808 c-1 -4 8 -71 18 -150 94 -700 102 -1410 25 -2153 -36
-347 -102 -770 -166 -1065 -11 -52 -26 -124 -33 -160 -40 -200 -176 -713 -265
-1002 -96 -314 -259 -795 -309 -911 -12 -27 -21 -56 -21 -65 0 -9 21 -66 46
-127 94 -228 175 -449 254 -695 29 -91 56 -168 60 -172 12 -15 250 655 330
932 113 392 269 1141 324 1560 65 488 101 1356 77 1815 -25 484 -113 1199
-201 1630 -28 138 -137 579 -139 563z"/>
<path d="M56215 25723 c-110 -173 -268 -424 -340 -543 -84 -137 -245 -376
-374 -553 l-122 -169 41 -66 42 -66 -28 -20 c-16 -12 -87 -59 -159 -106 -72
-47 -139 -92 -150 -100 -27 -20 -116 -143 -325 -445 -220 -318 -299 -425 -744
-1000 l-31 -40 30 20 c17 11 105 70 195 131 650 437 1266 764 2319 1229 221
97 416 188 429 200 2 2 -46 101 -106 221 -207 414 -387 813 -529 1174 -46 118
-86 216 -88 218 -2 2 -29 -36 -60 -85z"/>
<path d="M34415 24123 c-61 -14 -484 -161 -616 -214 -85 -34 -176 -70 -204
-81 -102 -39 -364 -154 -483 -213 l-123 -60 -35 -100 c-43 -124 -62 -188 -169
-555 -24 -83 -111 -424 -174 -685 -107 -443 -193 -1016 -271 -1800 -6 -60 -15
-148 -20 -195 -12 -110 -28 -440 -34 -699 l-5 -204 52 59 c53 60 452 486 562
600 70 72 185 179 345 321 361 318 416 368 421 377 3 6 12 101 18 211 41 678
102 1087 247 1665 105 418 174 655 268 918 56 155 203 508 257 614 11 21 19
40 19 43 0 6 -25 5 -55 -2z"/>
<path d="M57165 23678 c-125 -80 -379 -219 -765 -418 -1184 -610 -1693 -918
-2277 -1377 -73 -58 -133 -106 -133 -107 0 -1 22 -17 48 -34 61 -39 139 -122
158 -167 21 -51 18 -117 -7 -148 -36 -47 -76 -50 -351 -31 l-249 17 -91 -89
c-207 -204 -509 -561 -685 -809 -157 -223 -464 -737 -448 -753 6 -7 105 -35
237 -68 l66 -17 52 44 c29 24 84 71 124 105 150 128 550 419 901 656 470 317
1202 690 1745 889 74 28 153 57 175 66 314 124 989 298 1330 342 39 5 117 14
175 20 58 6 178 18 267 27 101 10 219 15 312 13 146 -4 150 -4 146 16 -25 117
-48 266 -70 440 -14 116 -40 304 -56 420 l-31 210 -107 170 c-59 93 -168 274
-242 402 -74 128 -136 232 -139 233 -3 0 -41 -24 -85 -52z"/>
<path d="M44760 22508 c0 -4 14 -67 31 -140 26 -113 35 -138 61 -165 18 -18
34 -31 36 -28 2 2 -9 41 -26 87 -37 100 -101 256 -102 246z"/>
<path d="M46270 21433 c-149 -26 -390 -125 -390 -160 0 -17 26 -177 35 -218 2
-11 25 -45 50 -75 26 -30 71 -90 101 -133 l56 -78 33 43 c18 24 47 52 64 63
18 11 45 41 62 66 67 104 200 146 314 99 19 -7 88 -13 185 -14 169 -1 246 -17
378 -77 79 -36 75 -27 -56 118 -226 248 -473 375 -722 371 -47 0 -96 -3 -110
-5z"/>
<path d="M51325 20734 c-415 -235 -876 -546 -1345 -907 -267 -206 -454 -357
-443 -357 5 0 63 18 128 41 140 47 374 111 530 146 314 68 627 125 760 137 33
3 108 10 166 16 58 7 215 15 349 18 201 6 244 10 251 22 4 8 43 89 87 180 43
91 118 234 165 317 48 84 87 155 87 157 0 2 -37 -3 -82 -10 -94 -15 -158 -7
-220 28 -51 29 -178 174 -218 250 -17 32 -34 58 -38 58 -4 0 -83 -44 -177 -96z"/>
<path d="M47420 19668 c0 -3 11 -54 25 -112 49 -209 105 -593 121 -834 4 -56
10 -105 14 -107 4 -2 28 17 54 44 l46 47 -25 140 c-37 202 -108 483 -161 633
-45 130 -73 202 -74 189z"/>
<path d="M39958 18082 c-159 -241 -158 -240 -158 -285 0 -81 77 -383 139 -547
21 -54 38 -75 295 -370 403 -461 886 -929 1436 -1390 62 -52 140 -118 174
-147 33 -29 61 -51 63 -49 9 9 -124 534 -177 701 -101 314 -294 753 -428 973
-87 142 -257 397 -299 450 -182 226 -403 461 -563 598 -90 77 -338 274 -343
274 -1 0 -63 -94 -139 -208z"/>
<path d="M68436 15163 c-2 -16 -19 -134 -36 -263 -50 -373 -126 -740 -256
-1230 -20 -74 -40 -153 -45 -175 -12 -50 -121 -420 -159 -540 -16 -49 -56
-175 -89 -280 -33 -104 -112 -356 -176 -560 -63 -203 -120 -383 -126 -400 -6
-18 -6 -26 0 -20 19 20 204 362 242 447 21 47 52 115 70 150 49 97 210 525
271 718 93 299 109 358 168 644 45 214 100 550 110 666 5 58 14 143 19 189 11
88 26 681 17 681 -2 0 -7 -12 -10 -27z"/>
<path d="M63423 14750 c-74 -139 -156 -286 -203 -365 -26 -44 -57 -99 -68
-121 l-21 -41 30 -74 c70 -167 352 -724 451 -886 31 -52 69 -39 100 32 l13 30
3 -47 c3 -44 -6 -72 -40 -119 -9 -14 3 -40 67 -145 197 -327 449 -674 465
-643 4 8 15 55 23 104 9 50 32 176 51 280 19 105 37 204 40 220 3 17 20 108
37 204 l31 173 -50 52 c-94 97 -297 354 -381 482 -115 178 -272 458 -401 717
l-109 218 -38 -71z"/>
<path d="M62926 13884 c-3 -10 -34 -63 -69 -116 -54 -83 -66 -108 -76 -170
-64 -370 -151 -655 -336 -1094 -207 -491 -575 -1112 -945 -1596 -352 -458
-577 -716 -951 -1083 -528 -519 -798 -743 -1444 -1192 -395 -274 -627 -412
-1095 -647 -399 -201 -565 -278 -794 -371 -488 -196 -1255 -424 -1731 -514
-268 -50 -905 -131 -1185 -151 -214 -15 -698 -12 -1003 5 l-267 16 -158 -30
c-221 -43 -421 -76 -602 -100 -85 -12 -186 -26 -225 -31 -38 -6 -110 -14 -160
-20 -49 -5 -215 -23 -369 -39 -528 -58 -1164 -51 -1741 19 -44 5 -127 14 -185
20 -95 10 -175 20 -415 51 -94 12 -255 46 -454 95 l-144 36 -91 -31 c-109 -36
-296 -71 -379 -71 -52 0 -79 -9 -230 -77 -378 -168 -515 -218 -837 -304 -167
-45 -450 -116 -513 -129 l-58 -12 58 -35 c142 -86 369 -211 728 -403 110 -59
277 -149 370 -200 94 -50 298 -157 455 -237 157 -80 323 -169 370 -198 47 -28
182 -112 300 -185 118 -74 223 -133 232 -133 88 7 457 216 603 342 33 29 84
72 112 97 l53 45 92 -81 c51 -44 134 -109 183 -143 50 -35 122 -86 160 -114
80 -59 370 -230 495 -293 47 -24 124 -58 171 -76 l86 -33 534 134 c294 73 579
145 634 160 55 15 132 35 170 45 566 150 1146 337 2050 662 61 22 139 50 175
63 197 70 724 278 870 343 25 11 115 50 200 87 85 37 295 133 465 212 171 80
369 172 440 205 290 136 797 392 1005 509 47 26 139 76 205 112 825 442 1058
571 1315 727 384 233 561 340 680 410 373 218 485 286 762 466 112 72 237 151
278 176 158 95 250 148 398 232 84 48 224 131 310 185 86 54 166 102 176 108
11 6 42 51 69 99 27 49 72 130 100 179 107 192 294 552 418 803 182 368 319
691 479 1127 34 94 72 197 85 230 l23 60 10 -40 c6 -22 25 -96 42 -164 56
-228 174 -487 306 -671 29 -41 86 -120 125 -175 93 -131 210 -265 303 -348 78
-70 246 -200 251 -195 4 4 133 553 169 718 62 286 96 453 96 469 0 9 -32 48
-71 86 -136 135 -345 416 -474 640 -143 248 -315 639 -415 945 -31 94 -100
348 -141 522 -5 20 -18 46 -28 59 -18 22 -19 22 -25 3z"/>
<path d="M34451 12340 c0 -8 4 -24 9 -35 5 -13 9 -14 9 -5 0 8 -4 24 -9 35 -5
13 -9 14 -9 5z"/>
<path d="M61424 11903 c-125 -155 -830 -870 -1026 -1041 -245 -214 -578 -482
-798 -642 -26 -19 -121 -91 -210 -158 -331 -252 -736 -475 -1335 -734 -130
-56 -150 -68 -225 -134 -41 -36 -100 -84 -130 -107 -30 -23 -80 -63 -110 -88
-110 -93 -463 -335 -719 -494 -62 -38 -149 -93 -194 -121 -143 -89 -258 -156
-392 -227 -159 -84 -581 -287 -690 -332 -94 -39 -195 -85 -195 -90 0 -2 8 -1
18 1 261 57 436 103 707 184 697 209 919 297 1541 608 553 276 749 396 1339
815 180 128 354 262 513 395 264 220 757 693 983 943 140 155 466 555 622 762
99 131 289 408 341 495 16 27 -4 10 -40 -35z"/>
<path d="M34850 11372 c0 -9 51 -85 54 -80 2 2 1 22 -2 46 -4 36 -7 42 -28 42
-13 0 -24 -3 -24 -8z"/>
<path d="M36725 9900 c-243 -131 -488 -213 -760 -255 -157 -25 -487 -17 -634
14 -93 20 -323 95 -372 121 -10 6 -19 8 -19 5 0 -18 298 -596 413 -800 27 -49
69 -124 92 -165 74 -132 136 -242 195 -345 32 -55 106 -185 165 -290 131 -230
283 -489 378 -645 38 -63 79 -130 89 -147 l20 -32 59 29 c72 37 234 146 309
208 86 72 345 329 414 412 58 69 101 128 254 355 30 44 94 160 142 259 96 198
100 199 100 51 0 -190 53 -1270 71 -1445 5 -52 13 -140 18 -196 15 -150 59
-440 80 -519 88 -329 115 -411 185 -560 122 -257 292 -478 501 -653 132 -110
425 -304 566 -374 556 -276 1212 -270 1767 17 l122 64 82 -95 c159 -184 392
-379 713 -594 61 -41 146 -98 189 -127 82 -55 282 -160 396 -208 137 -58 351
-124 499 -155 146 -30 470 -74 479 -66 2 3 -7 10 -20 16 -43 23 -581 412 -790
572 -244 186 -315 242 -354 277 -22 20 -91 79 -154 131 -540 453 -783 678
-1095 1015 -150 162 -429 474 -471 525 -16 19 -57 68 -92 108 -84 98 -283 401
-468 714 -86 145 -46 115 -404 305 -274 145 -573 345 -815 544 -38 31 -104 85
-145 119 -169 139 -746 688 -839 799 -151 178 -307 384 -412 542 -92 137 -123
187 -269 427 -34 56 -65 102 -68 101 -4 0 -56 -27 -117 -59z"/>
</g>
</svg>
