<?xml version="1.0" standalone="no"?>
<!DOCTYPE svg PUBLIC "-//W3C//DTD SVG 20010904//EN"
 "http://www.w3.org/TR/2001/REC-SVG-20010904/DTD/svg10.dtd">
<svg version="1.0" xmlns="http://www.w3.org/2000/svg"
 width="8000.000000pt" height="4000.000000pt" viewBox="0 0 8000.000000 4000.000000"
 preserveAspectRatio="xMidYMid meet">

<g transform="translate(0.000000,4000.000000) scale(0.100000,-0.100000)"
fill="#000000" stroke="none">
<path d="M50035 39473 c-282 -10 -670 -38 -810 -58 -60 -9 -168 -25 -240 -35
-71 -11 -220 -33 -330 -50 -110 -17 -229 -36 -265 -41 -36 -5 -101 -16 -145
-23 -44 -8 -161 -29 -260 -46 -99 -17 -209 -37 -245 -45 -36 -8 -81 -17 -100
-20 -98 -16 -533 -119 -705 -166 -192 -54 -488 -141 -540 -160 -27 -10 -70
-23 -95 -29 -51 -14 -279 -96 -390 -141 -41 -17 -119 -49 -173 -70 -285 -113
-476 -191 -672 -274 -60 -26 -146 -62 -191 -80 -44 -19 -146 -64 -225 -101
-79 -36 -191 -88 -249 -114 -113 -52 -493 -247 -655 -337 -370 -206 -558 -323
-920 -572 -104 -72 -233 -160 -285 -195 -151 -103 -483 -339 -632 -449 -185
-137 -327 -250 -610 -482 -231 -188 -542 -475 -804 -738 -544 -548 -949 -977
-1155 -1224 -389 -466 -628 -777 -797 -1033 -400 -608 -411 -626 -615 -952
-390 -624 -732 -1299 -986 -1946 -29 -74 -51 -135 -48 -138 2 -2 48 0 103 6
91 10 464 44 750 70 204 18 171 -12 252 233 77 233 185 528 227 622 50 110
197 439 235 525 215 486 436 934 625 1265 119 208 208 355 270 445 39 58 110
161 157 230 151 221 323 466 426 606 37 50 83 113 102 139 143 195 435 554
651 802 251 287 1073 1046 1524 1408 34 28 82 66 106 86 161 130 245 195 324
249 163 111 668 446 755 500 272 170 456 279 720 427 197 110 631 317 910 433
69 28 157 65 195 81 97 40 238 94 380 144 66 24 144 52 173 64 113 45 527 158
792 217 199 44 608 123 693 134 474 62 1135 84 1432 47 428 -53 547 -75 780
-147 104 -32 241 -83 285 -105 32 -17 284 -39 785 -70 220 -14 420 -27 445
-30 25 -3 99 -10 165 -15 232 -19 478 -53 770 -106 167 -30 259 -49 535 -110
36 -8 139 -37 230 -63 170 -51 432 -125 720 -206 91 -25 192 -54 225 -64 33
-11 123 -38 200 -61 198 -60 480 -154 615 -206 313 -121 362 -142 655 -272
165 -73 399 -190 500 -250 55 -32 177 -103 270 -157 94 -53 190 -109 215 -124
25 -15 90 -54 145 -86 175 -102 548 -327 590 -355 22 -15 112 -75 200 -133
276 -182 330 -220 590 -416 93 -70 281 -220 455 -361 41 -34 177 -160 302
-281 124 -120 231 -219 236 -219 5 0 42 14 83 31 588 245 1248 512 1614 654
1387 537 1919 736 2795 1047 47 16 114 40 150 53 98 36 1266 450 1415 502 209
73 631 215 1575 533 487 164 1007 340 1155 390 149 51 497 168 775 261 278 93
494 167 480 165 -35 -7 -532 -115 -860 -187 -330 -72 -870 -204 -1220 -299
-140 -38 -336 -89 -435 -115 -1104 -285 -1611 -423 -1975 -537 -232 -72 -259
-81 -940 -291 -223 -69 -472 -146 -555 -172 -255 -79 -863 -275 -938 -301
-124 -45 -494 -180 -692 -254 -104 -39 -237 -89 -295 -110 -144 -53 -597 -224
-673 -254 -34 -14 -179 -70 -322 -125 -242 -93 -443 -173 -592 -235 -35 -14
-66 -26 -71 -26 -5 0 -74 70 -153 157 -129 140 -355 356 -864 824 -388 356
-698 616 -1005 844 -185 137 -211 156 -325 232 -55 36 -131 87 -170 113 -78
52 -272 172 -440 272 -325 194 -1359 660 -1895 855 -426 154 -1062 331 -1400
389 -52 8 -122 22 -155 29 -33 8 -103 18 -155 24 -52 6 -156 17 -230 26 -358
40 -873 90 -1100 105 -356 24 -850 34 -1155 23z"/>
<path d="M71950 38283 c-47 -19 -416 -163 -820 -319 -404 -155 -881 -340
-1060 -409 -342 -133 -417 -162 -835 -325 -494 -192 -1112 -429 -1640 -629
-554 -209 -1379 -523 -2075 -791 -146 -56 -463 -175 -705 -265 -480 -178
-1631 -609 -1950 -730 -176 -67 -442 -166 -1295 -480 -124 -46 -502 -186 -840
-313 -338 -126 -699 -260 -802 -298 l-187 -69 71 -85 c38 -47 91 -110 117
-140 140 -163 389 -496 533 -716 152 -230 388 -595 434 -671 10 -18 54 -90 98
-160 269 -436 544 -958 738 -1397 l47 -109 193 -196 c173 -175 276 -298 363
-429 15 -23 29 -41 31 -39 2 2 -37 113 -87 248 -50 134 -110 296 -134 359 -23
63 -58 158 -77 210 -20 53 -45 118 -56 145 -11 28 -54 136 -96 240 -41 105
-98 244 -126 310 -29 66 -68 158 -87 204 -19 47 -48 111 -64 143 -16 32 -38
79 -48 106 -31 77 -224 469 -359 727 -122 235 -228 420 -342 600 -64 101 -211
338 -308 495 -35 58 -70 112 -76 120 -19 22 -78 122 -74 124 8 6 1070 378
1188 416 30 10 195 66 365 125 171 59 328 113 350 120 68 23 218 78 500 185
149 56 396 149 550 206 154 58 296 111 315 119 36 15 167 63 895 330 231 84
485 179 565 210 190 74 405 160 453 180 l38 16 31 -68 c17 -37 53 -115 80
-173 61 -128 85 -187 199 -494 49 -131 132 -338 183 -460 103 -242 115 -276
281 -766 62 -184 143 -414 180 -510 112 -295 208 -571 279 -810 97 -327 228
-745 306 -980 105 -314 166 -536 331 -1190 65 -261 139 -554 164 -650 73 -282
161 -682 210 -960 37 -211 70 -403 95 -565 32 -209 68 -435 105 -660 49 -301
84 -550 119 -855 12 -103 14 -108 15 -50 0 36 -6 236 -14 445 -19 499 -58
1023 -120 1635 -15 144 -37 375 -55 565 -15 162 -49 503 -60 600 -6 50 -15
131 -20 180 -47 427 -122 985 -190 1410 -5 33 -16 103 -25 155 -8 52 -35 221
-60 375 -25 154 -57 352 -71 440 -148 924 -203 1218 -373 2005 -38 179 -106
498 -151 710 -74 353 -99 465 -162 725 -25 105 -24 104 -197 229 -67 48 -119
92 -114 96 7 8 234 98 563 225 402 155 872 345 1485 600 154 64 453 185 665
270 471 187 654 264 1155 482 215 94 453 196 530 228 253 103 506 217 767 347
142 70 258 130 258 133 0 3 -1 5 -2 4 -2 0 -41 -17 -88 -36z"/>
<path d="M37664 36523 c-185 -259 -373 -553 -638 -996 -133 -222 -131 -216
-226 -627 -27 -118 -70 -278 -94 -355 -25 -77 -79 -266 -121 -419 -42 -153
-105 -367 -141 -475 -55 -167 -134 -436 -189 -641 -39 -148 -112 -393 -165
-555 -88 -270 -114 -355 -160 -520 -128 -459 -230 -807 -300 -1020 -98 -300
-132 -410 -215 -705 -36 -129 -78 -275 -92 -323 -13 -49 -23 -91 -20 -93 4 -5
238 18 324 32 38 6 28 -23 179 539 47 172 96 351 131 470 20 66 40 136 45 155
13 48 101 326 153 485 110 336 168 528 300 980 133 456 187 627 320 1020 64
187 168 513 231 725 127 426 150 496 252 780 39 107 113 337 166 511 52 174
117 377 144 450 63 170 81 227 136 424 25 88 58 197 75 243 17 45 29 82 27 82
-1 0 -57 -75 -122 -167z"/>
<path d="M48410 36204 c-47 -26 -164 -86 -260 -134 -165 -83 -324 -169 -467
-253 -77 -45 -150 -88 -268 -157 -49 -29 -142 -82 -205 -118 -144 -81 -433
-272 -683 -451 -106 -75 -255 -181 -332 -236 -306 -216 -510 -384 -1007 -825
-102 -91 -236 -210 -299 -265 -202 -177 -833 -819 -743 -755 12 8 100 74 195
146 214 161 259 193 748 529 370 254 581 380 920 550 304 152 457 219 1076
470 437 177 484 194 780 281 320 93 932 220 1280 265 39 5 79 11 91 14 11 2
68 11 125 20 57 8 181 26 274 39 94 14 266 30 384 37 265 15 762 7 999 -16
233 -22 245 -19 130 29 -51 22 -129 55 -173 73 -580 245 -1499 544 -2342 764
-62 16 -118 31 -125 34 -7 3 -51 -16 -98 -41z"/>
<path d="M35214 35463 c-212 -223 -374 -403 -508 -563 -217 -260 -199 -235
-653 -875 -245 -346 -544 -803 -743 -1135 -27 -46 -165 -304 -283 -530 -182
-351 -486 -964 -597 -1205 -248 -537 -287 -626 -325 -725 -18 -47 -54 -139
-79 -205 -26 -66 -58 -149 -71 -185 -12 -36 -34 -94 -48 -130 -15 -36 -49
-128 -77 -205 -85 -234 -103 -280 -114 -291 -6 -6 -65 -16 -131 -23 -66 -6
-174 -18 -240 -26 -175 -20 -567 -65 -660 -75 -130 -14 -1306 -185 -1725 -250
-69 -11 -199 -31 -290 -45 -91 -14 -192 -29 -225 -35 -33 -5 -121 -19 -195
-30 -144 -22 -223 -34 -322 -50 -35 -6 -178 -28 -318 -50 -346 -55 -495 -83
-1405 -266 -313 -63 -689 -139 -835 -169 -334 -70 -754 -156 -977 -200 -94
-19 -191 -39 -215 -44 -24 -6 -137 -31 -253 -57 -393 -87 -521 -127 -225 -69
74 14 234 44 355 66 477 85 902 161 950 169 28 5 237 43 465 85 228 42 462 85
520 95 58 11 319 58 580 105 261 47 538 97 615 110 77 14 230 41 340 60 340
60 842 143 1025 169 96 14 236 35 310 46 74 11 164 25 200 30 36 5 126 19 200
30 74 11 164 25 200 30 36 5 126 19 200 30 528 80 1573 234 1760 259 36 5 178
25 315 45 244 35 463 66 615 86 73 10 376 46 615 74 568 66 767 91 753 94 -21
4 -294 -22 -973 -93 -77 -8 -243 -26 -370 -39 -126 -13 -231 -23 -232 -22 -2
2 3 22 11 47 8 24 27 89 41 144 88 328 197 675 262 835 31 74 68 167 84 205
15 39 44 108 64 155 21 47 45 105 55 130 10 25 51 119 90 210 39 91 100 235
135 320 57 139 126 290 310 675 96 201 383 773 453 900 151 279 202 370 310
560 107 188 307 495 499 769 47 66 106 150 131 186 82 116 293 401 411 555
130 170 326 421 349 448 8 9 13 17 10 17 -2 0 -67 -66 -144 -147z"/>
<path d="M54620 33308 c-156 -107 -507 -361 -570 -412 -370 -297 -686 -613
-763 -763 -17 -33 -23 -87 -9 -81 8 3 73 47 395 267 273 187 443 294 872 551
215 128 394 237 399 241 5 4 -7 21 -25 37 -67 58 -239 192 -246 192 -5 0 -28
-15 -53 -32z"/>
<path d="M48825 32519 c-171 -15 -255 -30 -393 -69 -333 -94 -585 -227 -882
-466 -344 -276 -585 -586 -807 -1039 -180 -368 -268 -636 -359 -1095 -28 -142
-64 -373 -59 -378 1 -2 38 47 80 109 153 220 275 356 500 559 221 198 331 277
547 394 227 123 513 169 692 112 142 -45 212 -104 280 -238 81 -161 99 -331
111 -1063 3 -214 12 -478 20 -585 8 -107 17 -278 20 -380 4 -102 17 -302 30
-445 13 -143 27 -300 30 -350 12 -174 38 -358 85 -595 94 -472 154 -736 206
-908 61 -199 351 -1034 432 -1242 62 -161 156 -380 184 -434 17 -33 21 -30 41
44 9 30 32 102 52 160 45 132 81 310 95 465 6 66 22 190 35 275 39 245 54 382
65 596 5 109 18 279 30 376 25 220 46 553 49 763 1 88 9 270 17 405 18 312 18
573 -1 792 -23 272 -35 504 -35 672 0 140 -8 257 -40 581 -12 127 -12 368 0
555 16 243 96 583 188 791 22 50 82 239 106 332 27 104 38 218 31 316 -23 332
-207 635 -486 802 -82 49 -263 123 -365 149 -72 19 -335 52 -386 49 -13 -1
-63 -5 -113 -10z"/>
<path d="M55700 32184 c-215 -80 -212 -81 27 -13 84 24 151 49 150 54 -7 19
-32 13 -177 -41z"/>
<path d="M57075 30775 c9 -22 30 -71 45 -110 16 -38 52 -124 80 -190 161 -374
263 -644 373 -980 79 -242 97 -300 197 -640 34 -115 77 -262 96 -325 129 -430
240 -983 350 -1750 8 -58 21 -145 29 -195 8 -49 19 -130 25 -180 6 -49 13
-108 16 -130 13 -114 35 -456 45 -740 10 -252 10 -444 0 -905 -6 -322 -16
-628 -21 -680 -5 -52 -16 -171 -25 -265 -41 -440 -101 -803 -271 -1655 -77
-382 -148 -646 -279 -1030 -89 -261 -113 -324 -379 -985 -139 -344 -305 -670
-490 -963 l-27 -44 -41 59 c-23 32 -66 94 -98 138 -31 44 -89 127 -130 185
-40 58 -103 146 -140 195 -36 50 -88 121 -116 158 -48 68 -312 425 -444 602
-141 189 -414 565 -487 670 -42 61 -102 144 -133 185 -337 449 -382 507 -480
630 -41 51 -95 119 -120 151 -229 293 -287 368 -360 464 -143 188 -304 383
-541 655 -79 91 -187 217 -239 280 -202 246 -359 420 -650 724 -74 78 -202
215 -285 306 -157 174 -840 858 -1010 1013 -55 50 -156 143 -225 208 -174 162
-481 418 -503 419 -5 0 9 -21 30 -47 22 -27 95 -120 163 -208 69 -88 225 -286
348 -439 122 -153 298 -380 390 -503 92 -124 316 -424 497 -667 182 -243 439
-592 572 -776 133 -184 319 -441 415 -572 95 -130 227 -310 292 -400 66 -89
143 -194 171 -233 68 -93 324 -451 460 -645 125 -178 296 -420 400 -565 111
-155 698 -981 826 -1162 192 -272 238 -338 406 -582 445 -648 557 -811 972
-1408 162 -233 297 -423 302 -423 11 0 341 348 740 780 462 502 511 557 505
578 -3 9 -13 62 -23 117 -15 84 -17 151 -16 420 1 274 24 712 38 735 2 4 13
83 24 176 53 434 61 493 101 719 25 137 85 505 107 650 10 64 56 317 83 455
16 80 45 244 65 365 19 121 42 258 50 305 8 47 19 112 24 145 6 33 21 128 34
210 35 210 65 439 107 820 6 55 15 136 20 180 38 323 38 1240 1 1620 -38 378
-69 587 -182 1210 -78 434 -189 831 -402 1435 -168 476 -205 570 -309 795 -75
161 -233 465 -303 585 -18 30 -56 96 -85 145 -49 83 -127 209 -298 485 -98
157 -287 448 -299 460 -3 3 2 -13 12 -35z"/>
<path d="M33763 29613 c9 -2 25 -2 35 0 9 3 1 5 -18 5 -19 0 -27 -2 -17 -5z"/>
<path d="M71351 29238 c-1 -7 19 -108 73 -358 129 -607 201 -959 236 -1150 12
-63 27 -149 35 -190 20 -106 40 -228 69 -425 14 -93 30 -199 36 -235 10 -67
43 -336 60 -495 21 -200 37 -524 60 -1280 12 -402 12 -1135 0 -1425 -20 -463
-40 -747 -60 -870 -11 -69 -27 -165 -35 -215 -8 -49 -31 -189 -50 -310 -19
-121 -42 -256 -50 -300 -8 -44 -24 -134 -36 -200 -56 -321 -119 -639 -190
-955 -17 -74 -39 -175 -50 -225 -11 -49 -26 -115 -34 -145 -8 -30 -31 -122
-50 -205 -20 -82 -39 -159 -41 -170 -6 -24 -17 -36 155 176 155 192 263 304
366 382 44 33 103 84 131 112 28 28 68 59 88 69 20 9 36 24 36 34 0 9 5 55 10
102 22 197 41 381 50 465 5 50 18 178 29 285 25 242 37 364 71 770 10 122 21
309 40 695 13 268 13 1216 -1 1425 -6 96 -22 267 -36 380 -14 113 -29 239 -33
280 -10 84 -35 278 -50 385 -6 39 -26 183 -45 320 -20 138 -42 288 -50 335 -8
47 -24 144 -35 215 -69 419 -229 1205 -291 1430 -106 381 -405 1328 -408 1293z"/>
<path d="M23468 27983 c7 -3 16 -2 19 1 4 3 -2 6 -13 5 -11 0 -14 -3 -6 -6z"/>
<path d="M23418 27973 c7 -3 16 -2 19 1 4 3 -2 6 -13 5 -11 0 -14 -3 -6 -6z"/>
<path d="M36057 27137 c-15 -78 -27 -151 -26 -162 0 -11 11 30 23 90 13 61 30
134 39 163 12 39 13 52 4 52 -8 0 -22 -52 -40 -143z"/>
<path d="M34800 27123 c-58 -8 -106 -16 -107 -17 -16 -14 -107 -652 -153
-1071 -16 -148 -34 -310 -40 -360 -5 -49 -17 -162 -25 -250 -9 -88 -27 -263
-41 -390 -94 -882 -119 -1208 -164 -2133 -82 -1700 -92 -2103 -88 -3392 l3
-955 76 -225 c74 -219 180 -517 294 -830 31 -85 75 -204 97 -265 22 -60 56
-155 75 -210 110 -316 399 -926 763 -1610 270 -508 340 -629 549 -955 90 -140
154 -235 382 -565 16 -22 40 -53 54 -70 l27 -30 -23 40 c-23 40 -429 853 -429
859 0 2 -38 82 -84 177 -320 661 -493 1076 -689 1654 -125 367 -179 559 -247
880 -11 50 -31 142 -44 205 -14 63 -37 169 -51 235 -103 479 -204 1013 -250
1313 -38 254 -45 305 -60 427 -8 72 -20 164 -25 205 -5 41 -14 125 -20 185 -6
61 -15 151 -20 200 -18 171 -30 401 -40 760 -6 198 -15 504 -20 680 -12 424
-12 1192 0 1485 15 343 39 753 50 845 5 44 16 154 25 245 51 559 81 851 125
1215 47 385 71 546 165 1090 14 80 63 323 109 533 l24 112 -47 -1 c-25 -1 -93
-8 -151 -16z"/>
<path d="M36021 26934 c0 -11 3 -14 6 -6 3 7 2 16 -1 19 -3 4 -6 -2 -5 -13z"/>
<path d="M36011 26884 c0 -11 3 -14 6 -6 3 7 2 16 -1 19 -3 4 -6 -2 -5 -13z"/>
<path d="M36002 26835 c0 -16 2 -22 5 -12 2 9 2 23 0 30 -3 6 -5 -1 -5 -18z"/>
<path d="M35985 26743 c-3 -32 -10 -74 -15 -93 -19 -76 -94 -600 -114 -800 -9
-91 -21 -201 -26 -245 -9 -74 -13 -138 -40 -570 -11 -187 -4 -1227 10 -1515
21 -411 42 -654 85 -980 8 -58 17 -130 20 -160 12 -111 144 -800 239 -1255 33
-157 137 -568 182 -720 67 -229 226 -700 269 -800 23 -55 46 -111 50 -125 4
-14 22 -59 41 -100 18 -41 70 -160 115 -265 118 -275 170 -396 227 -522 62
-138 293 -599 325 -651 14 -20 37 -62 52 -92 41 -83 189 -334 313 -533 79
-126 367 -548 527 -772 341 -476 494 -671 867 -1107 184 -216 966 -1005 1236
-1249 222 -199 473 -417 567 -489 39 -30 95 -75 125 -100 30 -26 89 -72 130
-102 41 -31 111 -84 155 -118 121 -94 529 -399 618 -460 279 -197 317 -223
692 -466 123 -80 522 -309 890 -512 396 -218 926 -475 1260 -613 352 -144
1211 -437 1605 -546 379 -105 619 -158 1055 -232 751 -127 1220 -171 1855
-171 714 0 1321 44 1864 135 186 31 248 45 205 45 -14 0 -86 10 -374 50 -82
11 -238 32 -345 46 -329 42 -606 83 -765 114 -505 99 -809 177 -1315 340 -151
49 -430 136 -620 195 -794 245 -1169 381 -1820 660 -92 39 -735 353 -1395 681
-361 179 -776 398 -944 498 -31 18 -101 60 -156 92 -362 212 -704 434 -951
618 -22 17 -105 76 -183 131 -78 55 -183 130 -234 166 -51 36 -171 121 -267
189 -332 235 -819 601 -985 740 -38 32 -137 115 -220 184 -466 390 -653 569
-1166 1116 -157 168 -306 328 -329 355 -24 28 -91 102 -150 165 -463 498
-1024 1222 -1323 1707 -43 69 -91 155 -257 453 -23 41 -63 113 -89 160 -241
428 -613 1188 -739 1505 -11 28 -50 123 -86 213 -71 175 -165 445 -201 576
-12 45 -41 149 -64 231 -86 303 -110 395 -165 615 -79 320 -125 534 -180 840
-65 360 -66 367 -106 875 -49 628 -62 1415 -31 1795 32 384 46 533 66 695 22
174 27 235 22 235 -3 0 -8 -26 -12 -57z"/>
<path d="M31255 26686 l-340 -41 -11 -55 c-6 -30 -23 -120 -38 -200 -15 -80
-31 -163 -36 -185 -20 -92 -115 -660 -145 -875 -8 -52 -25 -171 -39 -265 -14
-93 -34 -240 -46 -325 -11 -85 -25 -184 -30 -220 -23 -161 -50 -396 -59 -515
-6 -71 -15 -186 -21 -255 -12 -147 -35 -659 -51 -1095 -15 -429 2 -2081 26
-2490 13 -223 50 -611 91 -955 54 -459 90 -709 161 -1115 19 -110 38 -224 43
-252 10 -58 41 -217 70 -363 11 -52 27 -131 36 -175 13 -70 77 -375 134 -650
11 -49 33 -153 50 -230 17 -77 39 -184 50 -238 20 -93 39 -161 131 -467 63
-207 211 -657 274 -830 31 -85 66 -184 79 -220 13 -36 37 -99 54 -140 17 -41
47 -115 66 -165 74 -189 193 -471 281 -665 31 -69 76 -168 100 -220 75 -167
410 -859 612 -1265 98 -197 207 -400 259 -482 21 -34 77 -126 124 -203 133
-220 431 -673 575 -872 105 -146 230 -316 284 -386 31 -40 69 -89 84 -110 35
-47 140 -178 237 -296 41 -50 97 -119 125 -152 85 -104 197 -237 239 -285 23
-25 91 -103 151 -174 61 -71 133 -154 160 -185 28 -31 93 -105 145 -165 52
-60 120 -136 150 -170 30 -34 98 -110 150 -170 275 -314 475 -518 856 -874
339 -317 632 -573 870 -762 17 -13 96 -76 175 -140 79 -64 178 -142 219 -173
138 -105 544 -409 645 -484 55 -40 125 -92 155 -116 30 -23 116 -87 190 -141
74 -54 243 -180 375 -278 132 -99 265 -196 295 -215 30 -19 98 -63 150 -98
115 -76 294 -188 430 -269 55 -33 134 -80 174 -105 101 -61 371 -213 526 -298
279 -151 765 -392 1036 -515 65 -30 286 -130 489 -222 204 -92 404 -183 445
-200 41 -18 120 -54 175 -80 313 -149 866 -355 1300 -486 475 -143 787 -222
1445 -364 256 -56 448 -99 790 -180 271 -64 455 -99 870 -165 299 -48 739 -87
1230 -110 129 -6 359 -18 510 -26 357 -20 590 -26 530 -15 -25 5 -184 30 -355
56 -691 104 -1037 175 -1510 311 -179 52 -968 308 -1710 556 -692 231 -1230
449 -1865 756 -91 44 -239 114 -330 157 -1062 498 -1556 743 -1940 960 -41 23
-133 75 -205 115 -265 148 -467 270 -735 442 -124 79 -346 220 -495 312 -148
93 -304 190 -345 216 -41 26 -124 78 -185 116 -328 202 -724 462 -1080 705
-356 244 -880 639 -1066 804 -25 22 -85 74 -134 115 -49 41 -112 95 -140 120
-28 25 -121 104 -205 175 -85 72 -179 153 -210 180 -31 28 -99 86 -150 130
-51 44 -119 103 -150 130 -31 28 -104 91 -160 140 -57 50 -156 137 -219 195
-64 58 -152 137 -196 175 -136 120 -668 650 -884 880 -221 237 -318 349 -421
485 -147 194 -598 798 -626 836 -16 23 -74 104 -128 180 -55 77 -129 182 -166
234 -36 52 -78 113 -94 135 -53 77 -280 421 -330 500 -129 208 -255 416 -388
645 -67 114 -197 368 -255 500 -110 247 -178 402 -208 475 -19 44 -55 130 -80
190 -45 108 -212 526 -260 655 -141 374 -344 985 -390 1175 -19 77 -55 230
-80 340 -25 110 -54 238 -65 285 -33 143 -115 550 -150 745 -11 66 -25 138
-30 160 -5 22 -27 150 -49 285 -73 445 -117 925 -151 1665 -18 407 -12 638 40
1390 28 397 39 490 110 910 21 127 44 266 50 310 20 135 59 321 112 525 l50
195 -11 235 c-6 129 -19 384 -29 565 -22 429 -22 1010 1 1300 10 116 29 383
43 595 29 439 53 717 90 1009 14 112 24 204 22 205 -2 2 -156 -16 -343 -38z"/>
<path d="M27858 26263 c7 -3 16 -2 19 1 4 3 -2 6 -13 5 -11 0 -14 -3 -6 -6z"/>
<path d="M27685 26249 c-33 -4 -224 -26 -425 -49 -201 -22 -441 -50 -535 -61
-93 -11 -210 -24 -260 -29 -188 -21 -699 -81 -1490 -175 -66 -8 -232 -28 -370
-45 -335 -40 -543 -64 -830 -95 -132 -14 -321 -34 -420 -45 -99 -11 -225 -24
-280 -29 -55 -6 -210 -22 -345 -36 -135 -14 -531 -54 -880 -90 -681 -69 -1227
-127 -1645 -175 -417 -48 -1217 -129 -1775 -180 -938 -86 -1463 -137 -1995
-195 -126 -14 -281 -30 -343 -36 -62 -7 -111 -13 -109 -15 5 -6 632 16 767 26
74 6 257 21 405 35 149 14 437 36 640 50 457 31 946 75 1340 120 269 31 588
62 1415 141 437 41 783 80 1435 160 198 24 511 60 780 90 1187 130 1722 192
2010 234 110 16 351 50 535 75 184 25 367 50 405 55 39 6 223 31 410 55 187
25 390 52 450 60 61 8 198 26 305 40 107 13 281 35 385 49 105 14 264 34 355
46 91 11 170 23 175 25 17 6 -46 3 -110 -6z"/>
<path d="M39897 25233 c-15 -43 -46 -150 -71 -238 -25 -88 -57 -193 -71 -234
-35 -102 -35 -96 19 -536 8 -66 26 -174 40 -240 38 -190 89 -415 93 -412 1 2
-2 104 -8 228 -14 289 -5 1205 14 1379 8 69 13 126 11 128 -1 2 -13 -32 -27
-75z"/>
<path d="M63631 21068 c-12 -46 -33 -119 -46 -163 -13 -44 -38 -129 -55 -190
-208 -726 -377 -1183 -649 -1752 -117 -244 -236 -454 -546 -958 -37 -60 -91
-148 -120 -195 -72 -119 -282 -442 -345 -532 l-52 -75 46 -154 c79 -262 137
-358 308 -501 68 -57 93 -68 160 -68 42 0 66 9 146 53 175 95 257 192 363 429
33 73 82 174 108 223 130 241 225 527 301 905 11 58 54 242 95 410 142 585
196 922 225 1415 9 137 52 733 85 1158 4 42 5 77 2 77 -2 0 -14 -37 -26 -82z"/>
<path d="M52074 20892 c2 -4 50 -133 106 -287 157 -432 253 -684 363 -945 87
-206 500 -1077 745 -1570 177 -356 261 -485 557 -860 139 -176 258 -336 408
-550 75 -107 186 -257 247 -333 144 -181 182 -237 255 -382 33 -66 65 -120 70
-119 6 1 88 23 183 50 118 33 171 52 168 60 -3 7 -143 221 -312 476 -389 586
-602 909 -869 1318 -38 58 -100 152 -138 210 -149 223 -655 1052 -1180 1930
-410 686 -467 781 -531 893 -37 64 -70 117 -73 117 -2 0 -2 -3 1 -8z"/>
<path d="M67428 19027 c-57 -170 -226 -668 -328 -962 -26 -77 -85 -220 -155
-375 -18 -41 -59 -133 -90 -205 -182 -415 -597 -1205 -835 -1590 -21 -33 -80
-132 -132 -220 -53 -88 -148 -245 -213 -350 -65 -104 -141 -228 -170 -275
-305 -498 -331 -536 -580 -870 -175 -234 -214 -284 -399 -514 -369 -458 -852
-973 -1737 -1851 l-464 -461 155 125 c85 68 169 136 186 150 17 14 75 62 129
106 151 122 617 511 935 780 157 132 357 301 445 375 160 134 333 280 475 399
41 35 127 107 191 160 143 120 435 370 550 471 47 41 170 149 274 240 104 91
206 181 226 200 32 30 48 65 123 266 47 128 118 308 157 400 113 268 181 452
324 874 73 217 190 555 260 750 70 195 151 433 181 528 74 238 119 397 279
987 30 110 66 241 80 290 51 178 63 223 113 405 64 239 95 361 90 365 -2 2
-34 -87 -70 -198z"/>
<path d="M71215 17532 c-75 -166 -287 -588 -371 -740 -146 -262 -306 -526
-534 -877 -32 -49 -161 -252 -286 -450 -527 -832 -728 -1128 -1140 -1675 -172
-229 -197 -260 -509 -641 -110 -134 -229 -280 -265 -325 -63 -78 -303 -376
-403 -499 -27 -33 -83 -103 -125 -155 -267 -328 -621 -744 -882 -1034 -74 -83
-173 -193 -220 -246 -124 -139 -303 -320 -1161 -1175 -696 -693 -1125 -1112
-1191 -1164 l-23 -19 -42 62 c-46 69 -440 665 -525 796 -49 76 -427 666 -499
780 -268 423 -798 1242 -893 1380 -40 58 -100 144 -134 193 -55 78 -88 123
-213 302 -20 28 -62 88 -94 135 -32 47 -90 130 -128 185 -82 117 -149 213
-290 420 -57 83 -134 195 -172 250 -38 55 -93 136 -123 180 -30 44 -82 121
-116 170 -34 50 -129 189 -211 310 -81 121 -184 272 -228 335 -45 63 -103 148
-130 189 -50 75 -101 146 -302 416 -61 83 -128 173 -148 201 -63 87 -57 87
-150 -2 -100 -96 -246 -227 -394 -354 -61 -52 -112 -98 -112 -101 -1 -3 14
-26 32 -50 19 -24 95 -129 169 -234 74 -104 217 -305 318 -445 101 -140 228
-318 283 -395 55 -77 117 -162 137 -190 20 -27 173 -239 340 -470 167 -231
327 -451 355 -490 28 -38 137 -187 241 -330 104 -143 216 -297 249 -341 33
-45 96 -131 140 -190 82 -113 188 -257 334 -454 158 -214 1148 -1532 1401
-1865 261 -344 479 -631 551 -725 23 -30 119 -156 213 -280 191 -252 462 -608
683 -898 549 -719 1886 -2448 1921 -2482 19 -19 18 -18 -64 115 -152 247 -237
390 -349 585 -297 517 -487 830 -713 1174 -284 433 -372 571 -560 876 -210
340 -320 518 -358 577 l-34 52 43 35 c23 19 67 54 97 78 30 24 102 82 159 129
57 46 134 108 170 137 178 144 340 297 1001 947 570 560 1030 1034 1315 1355
61 68 133 149 161 179 28 31 73 83 100 117 27 33 76 92 109 131 57 66 178 214
291 354 94 118 202 258 310 401 59 79 119 159 134 178 107 142 249 343 306
435 85 139 182 296 249 405 29 47 83 135 120 195 167 270 443 730 550 915 43
74 101 176 130 225 29 50 79 139 111 198 33 59 80 145 105 190 143 256 427
823 559 1117 26 58 71 157 100 220 121 269 289 667 315 749 8 25 88 267 179
536 90 270 163 491 162 492 -1 2 -24 -46 -51 -105z"/>
<path d="M53269 15920 c-63 -38 -476 -155 -814 -230 -55 -13 -145 -33 -200
-46 -441 -101 -619 -125 -1275 -169 -124 -8 -306 -22 -405 -31 -212 -19 -1543
-36 -1795 -23 -239 12 -968 13 -1135 2 -137 -9 -155 -12 -211 -41 -74 -37 -81
-45 -99 -116 -21 -81 -18 -141 11 -221 13 -38 33 -101 43 -140 11 -38 28 -92
39 -120 l20 -50 68 0 c102 1 522 23 734 40 102 8 266 19 365 25 99 6 241 18
315 25 74 8 245 24 380 35 135 12 385 39 555 60 171 22 382 46 470 55 176 17
380 43 640 80 94 13 247 33 340 45 805 97 1742 272 2517 470 335 85 337 86
318 94 -86 34 -247 86 -390 126 -96 27 -229 68 -295 91 -133 46 -172 54 -196
39z"/>
<path d="M48187 14210 c13 -12 289 -182 490 -303 353 -213 894 -516 1310 -736
l193 -101 87 39 c49 21 178 80 288 131 110 50 313 140 450 200 138 59 277 120
310 135 110 49 517 256 740 375 121 65 243 129 270 143 28 15 47 26 44 27 -4
0 -123 -20 -265 -45 -437 -76 -732 -115 -984 -131 -360 -22 -866 -29 -1065
-15 -259 18 -731 68 -910 96 -205 32 -695 127 -848 164 -65 16 -115 25 -110
21z"/>
<path d="M57145 12979 c-49 -29 -173 -96 -275 -151 -102 -55 -187 -101 -188
-103 -4 -4 36 -62 248 -355 73 -102 156 -216 183 -255 28 -38 79 -106 113
-150 162 -203 528 -660 604 -753 83 -102 156 -191 235 -288 22 -27 112 -136
200 -243 88 -106 187 -226 220 -266 33 -40 183 -223 334 -406 151 -184 293
-356 316 -384 23 -27 70 -84 103 -125 34 -41 88 -106 121 -145 33 -38 60 -73
61 -76 0 -3 -12 -11 -26 -17 -14 -7 -62 -36 -107 -65 -165 -107 -295 -186
-432 -262 -77 -42 -183 -101 -235 -130 -482 -267 -1094 -555 -1680 -788 -315
-125 -714 -274 -1250 -464 -179 -63 -381 -136 -450 -160 -164 -59 -332 -112
-665 -208 -403 -116 -912 -236 -1315 -309 -313 -57 -718 -116 -1060 -156 -47
-6 -123 -15 -170 -20 -80 -10 -438 -49 -635 -70 -49 -5 -128 -14 -175 -20
-238 -27 -789 -51 -1180 -51 -593 0 -886 19 -2000 131 -434 44 -527 55 -890
106 -667 94 -1128 190 -1919 398 -95 25 -176 46 -180 46 -24 -1 1358 -698
1754 -884 602 -283 1414 -628 1943 -826 l113 -42 117 6 c172 10 302 23 642 66
168 22 404 48 525 60 335 31 453 48 985 139 291 49 452 74 645 101 179 24 220
31 435 70 265 49 405 82 1179 275 626 156 807 208 1201 348 196 69 342 126
765 292 94 37 211 83 260 102 438 168 1063 480 1610 804 147 87 579 346 690
414 61 37 126 77 145 88 331 193 1167 745 1394 920 l38 30 42 -49 c22 -27 88
-101 146 -165 58 -64 139 -154 180 -200 108 -121 566 -614 765 -824 228 -241
536 -572 780 -840 110 -121 255 -276 322 -345 l122 -126 -57 -44 c-322 -252
-743 -560 -1102 -807 -429 -294 -595 -398 -1040 -648 -47 -26 -114 -64 -150
-85 -36 -20 -100 -56 -142 -80 -43 -24 -76 -45 -74 -47 2 -2 25 6 52 18 27 11
90 36 139 54 200 75 636 260 905 385 467 217 459 213 900 468 52 30 124 71
160 91 36 20 99 57 140 80 41 24 104 61 140 81 196 112 292 167 349 202 35 21
65 38 66 36 181 -179 471 -460 710 -687 171 -162 447 -428 615 -591 168 -163
361 -348 430 -410 69 -62 140 -127 159 -144 l34 -31 -21 30 c-11 17 -76 93
-143 170 -116 133 -791 920 -854 996 -17 20 -91 107 -166 195 -143 168 -239
283 -558 663 -180 214 -262 315 -526 641 -51 63 -115 142 -142 175 -27 33
-112 139 -190 235 -78 96 -165 204 -194 240 -29 36 -109 135 -178 220 -214
265 -333 412 -396 490 -34 41 -128 158 -210 260 -82 102 -186 230 -230 285
-249 306 -1113 1393 -1225 1540 -14 18 -69 88 -122 156 -441 564 -511 656
-1003 1324 -125 171 -251 342 -280 380 -87 119 -158 215 -253 345 -120 163
-141 190 -150 190 -4 0 -47 -23 -97 -51z"/>
<path d="M55325 12178 c-189 -65 -523 -170 -685 -216 -19 -6 -138 -40 -265
-77 -347 -100 -475 -134 -650 -170 -88 -18 -153 -35 -145 -38 8 -3 83 -31 165
-63 83 -31 205 -76 272 -100 68 -24 140 -52 161 -63 l39 -20 189 103 c252 137
395 221 664 393 425 272 517 333 495 332 -5 -1 -113 -37 -240 -81z"/>
<path d="M46146 5032 c22 -20 327 -208 634 -392 289 -173 792 -460 1065 -607
1092 -591 1565 -817 2460 -1175 512 -205 1053 -388 1144 -388 92 1 402 107
591 203 85 43 193 94 240 114 175 72 301 164 355 257 25 45 79 176 73 180 -1
2 -160 13 -353 25 -314 20 -535 43 -680 72 -27 5 -113 21 -190 35 -225 41
-521 109 -965 221 -627 158 -769 202 -1321 403 -167 61 -342 125 -389 142
-141 51 -332 130 -595 246 -137 60 -315 138 -395 173 -80 35 -208 95 -286 135
l-141 73 -289 66 c-159 36 -368 84 -464 106 -96 22 -246 58 -333 80 -172 42
-176 43 -161 31z"/>
</g>
</svg>
